<svg width="48" height="48" viewBox="0 0 48 48" fill="none" xmlns="http://www.w3.org/2000/svg">
<path fill-rule="evenodd" clip-rule="evenodd" d="M9.3158 1.7002C10.0338 1.7002 10.6158 2.28223 10.6158 3.0002V8.09493H15.6316C16.3496 8.09493 16.9316 8.67696 16.9316 9.39493C16.9316 10.1129 16.3496 10.6949 15.6316 10.6949H10.6158V15.7897C10.6158 16.5076 10.0338 17.0897 9.3158 17.0897C8.59783 17.0897 8.0158 16.5076 8.0158 15.7897V10.6949H3.00001C2.28204 10.6949 1.70001 10.1129 1.70001 9.39493C1.70001 8.67696 2.28204 8.09493 3.00001 8.09493H8.0158V3.0002C8.0158 2.28223 8.59783 1.7002 9.3158 1.7002ZM36.9358 6.51447C35.9486 6.43281 34.6851 6.43177 32.8947 6.43177H24.0526C23.3347 6.43177 22.7526 5.84974 22.7526 5.13177C22.7526 4.4138 23.3347 3.83177 24.0526 3.83177L32.9521 3.83177C34.6721 3.83176 36.0432 3.83175 37.1501 3.92332C38.285 4.0172 39.2568 4.21392 40.1476 4.67344C41.5818 5.41338 42.7449 6.59245 43.4729 8.03898C43.9239 8.93531 44.1173 9.91327 44.2098 11.0587C44.3 12.1775 44.3 13.5642 44.3 15.3073V33.3247C44.3 35.0678 44.3 36.4544 44.2098 37.5732C44.1173 38.7187 43.9239 39.6967 43.4729 40.593C42.7449 42.0395 41.5818 43.2186 40.1476 43.9585C39.2568 44.4181 38.285 44.6148 37.1501 44.7086C36.0432 44.8002 34.6721 44.8002 32.9522 44.8002H15.1531C13.4332 44.8002 12.0621 44.8002 10.9552 44.7086C9.82031 44.6148 8.84847 44.4181 7.95773 43.9585C6.52346 43.2186 5.36035 42.0395 4.63241 40.593C4.18134 39.6967 3.98797 38.7187 3.89553 37.5732C3.80526 36.4545 3.80526 35.0679 3.80528 33.3248L3.80528 24.316C3.80528 23.598 4.38731 23.016 5.10528 23.016C5.82325 23.016 6.40528 23.598 6.40528 24.316V33.2686C6.40528 35.0805 6.40626 36.3622 6.48711 37.3641C6.56677 38.3513 6.71759 38.9526 6.9549 39.4242C7.43799 40.3842 8.20727 41.1617 9.14978 41.6479C9.61006 41.8853 10.198 42.0371 11.1695 42.1175C12.1567 42.1992 13.4202 42.2002 15.2105 42.2002H32.8947C34.6851 42.2002 35.9486 42.1992 36.9358 42.1175C37.9073 42.0371 38.4952 41.8853 38.9555 41.6479C39.898 41.1617 40.6673 40.3842 41.1504 39.4242C41.3877 38.9526 41.5385 38.3513 41.6182 37.3641C41.699 36.3622 41.7 35.0805 41.7 33.2686V15.3634C41.7 13.5515 41.699 12.2698 41.6182 11.2679C41.5385 10.2807 41.3877 9.67932 41.1504 9.20774C40.6673 8.24778 39.898 7.47031 38.9555 6.98408C38.4952 6.74662 37.9073 6.59484 36.9358 6.51447ZM24.0526 12.3581C24.7706 12.3581 25.3526 12.9401 25.3526 13.6581V34.9739C25.3526 35.6918 24.7706 36.2739 24.0526 36.2739C23.3347 36.2739 22.7526 35.6918 22.7526 34.9739V13.6581C22.7526 12.9401 23.3347 12.3581 24.0526 12.3581ZM32.4737 20.8844C33.1917 20.8844 33.7737 21.4664 33.7737 22.1844V34.9739C33.7737 35.6918 33.1917 36.2739 32.4737 36.2739C31.7557 36.2739 31.1737 35.6918 31.1737 34.9739V22.1844C31.1737 21.4664 31.7557 20.8844 32.4737 20.8844ZM15.6316 25.1476C16.3496 25.1476 16.9316 25.7296 16.9316 26.4476V34.9739C16.9316 35.6918 16.3496 36.2739 15.6316 36.2739C14.9136 36.2739 14.3316 35.6918 14.3316 34.9739V26.4476C14.3316 25.7296 14.9136 25.1476 15.6316 25.1476Z" fill="#EF8019"/>
</svg>
