<svg width="48" height="48" viewBox="0 0 48 48" fill="none" xmlns="http://www.w3.org/2000/svg">
<path fill-rule="evenodd" clip-rule="evenodd" d="M5.30286 8.58661C4.89434 8.95515 4.84811 9.19574 4.84811 9.29202C4.84811 9.3883 4.89434 9.6289 5.30286 9.99744C5.71118 10.3658 6.37509 10.7571 7.30614 11.1124C9.15929 11.8195 11.8072 12.2841 14.7965 12.2841C17.7859 12.2841 20.4337 11.8195 22.2869 11.1124C23.218 10.7571 23.8819 10.3658 24.2902 9.99744C24.6987 9.6289 24.7449 9.3883 24.7449 9.29202C24.7449 9.19574 24.6987 8.95515 24.2902 8.58661C23.8819 8.21824 23.218 7.82692 22.2869 7.47165C20.4337 6.76454 17.7859 6.29995 14.7965 6.29995C11.8072 6.29995 9.15929 6.76454 7.30614 7.47165C6.37509 7.82692 5.71118 8.21824 5.30286 8.58661ZM24.7804 12.814C24.9169 13.3858 25.4312 13.8111 26.0449 13.8111C26.7629 13.8111 27.3449 13.229 27.3449 12.5111V9.29202C27.3449 8.20308 26.7617 7.31456 26.0318 6.6561C25.3017 5.99747 24.3183 5.46393 23.2138 5.04249C20.9958 4.19617 18.0195 3.69995 14.7965 3.69995C11.5735 3.69995 8.59722 4.19617 6.37924 5.04249C5.27473 5.46393 4.29134 5.99747 3.56127 6.6561C2.83139 7.31456 2.24811 8.20308 2.24811 9.29202V35.0445C2.24811 36.1334 2.83139 37.0219 3.56127 37.6804C4.29134 38.339 5.27473 38.8726 6.37924 39.294C8.59722 40.1403 11.5735 40.6365 14.7965 40.6365C15.5145 40.6365 16.0965 40.0545 16.0965 39.3365C16.0965 38.6186 15.5145 38.0365 14.7965 38.0365C11.8072 38.0365 9.15929 37.5719 7.30614 36.8648C6.37509 36.5096 5.71118 36.1182 5.30286 35.7499C4.89434 35.3813 4.84811 35.1407 4.84811 35.0445V30.0023C5.31838 30.2665 5.83405 30.5018 6.37924 30.7099C8.59722 31.5562 11.5735 32.0524 14.7965 32.0524C15.5145 32.0524 16.0965 31.4704 16.0965 30.7524C16.0965 30.0344 15.5145 29.4524 14.7965 29.4524C11.8072 29.4524 9.15929 28.9878 7.30614 28.2807C6.37509 27.9254 5.71118 27.5341 5.30286 27.1657C4.89434 26.7972 4.84811 26.5566 4.84811 26.4603V21.4181C5.21286 21.6231 5.60371 21.8099 6.01247 21.9797C8.03403 22.8193 10.7533 23.3476 13.7293 23.45C14.081 23.4621 14.437 23.4682 14.7965 23.4682C15.5145 23.4682 16.0965 22.8862 16.0965 22.1682C16.0965 21.4503 15.5145 20.8682 14.7965 20.8682C14.4667 20.8682 14.1405 20.8626 13.8186 20.8515C11.0615 20.7567 8.66781 20.2672 7.00974 19.5786C6.17722 19.2328 5.59428 18.8632 5.23992 18.523C4.88875 18.186 4.84811 17.9681 4.84811 17.8762V12.834C5.31838 13.0982 5.83405 13.3335 6.37924 13.5416C8.59722 14.3879 11.5735 14.8841 14.7965 14.8841C18.0195 14.8841 20.9958 14.3879 23.2138 13.5416C23.7727 13.3283 24.3006 13.0863 24.7804 12.814ZM23.7094 22.5358C23.3008 22.9044 23.2546 23.145 23.2546 23.2413C23.2546 23.3375 23.3008 23.5781 23.7094 23.9467C24.1177 24.315 24.7816 24.7064 25.7126 25.0616C27.5658 25.7687 30.2137 26.2333 33.203 26.2333C36.1924 26.2333 38.8402 25.7687 40.6934 25.0616C41.6245 24.7064 42.2883 24.315 42.6967 23.9467C43.1052 23.5781 43.1514 23.3375 43.1514 23.2413C43.1514 23.145 43.1052 22.9044 42.6967 22.5358C42.2883 22.1675 41.6245 21.7762 40.6934 21.4209C38.8402 20.7138 36.1924 20.2492 33.203 20.2492C30.2137 20.2492 27.5658 20.7138 25.7126 21.4209C24.7816 21.7762 24.1177 22.1675 23.7094 22.5358ZM43.1514 26.7832C42.6812 27.0474 42.1655 27.2828 41.6203 27.4908C39.4023 28.3371 36.426 28.8333 33.203 28.8333C29.98 28.8333 27.0037 28.3371 24.7857 27.4908C24.2405 27.2828 23.7249 27.0474 23.2546 26.7832V31.2889C23.2546 31.3852 23.3008 31.6258 23.7094 31.9943C24.1177 32.3627 24.7816 32.754 25.7126 33.1093C27.5658 33.8164 30.2137 34.281 33.203 34.281C36.1924 34.281 38.8402 33.8164 40.6934 33.1093C41.6245 32.754 42.2883 32.3627 42.6967 31.9943C43.1052 31.6258 43.1514 31.3852 43.1514 31.2889V26.7832ZM45.7514 23.2413C45.7514 22.1523 45.1682 21.2638 44.4383 20.6053C43.7082 19.9467 42.7248 19.4132 41.6203 18.9917C39.4023 18.1454 36.426 17.6492 33.203 17.6492C29.98 17.6492 27.0037 18.1454 24.7857 18.9917C23.6812 19.4132 22.6978 19.9467 21.9678 20.6053C21.2379 21.2638 20.6546 22.1523 20.6546 23.2413V39.3365C20.6546 40.4255 21.2379 41.314 21.9678 41.9725C22.6978 42.6311 23.6812 43.1646 24.7857 43.5861C27.0037 44.4324 29.98 44.9286 33.203 44.9286C36.426 44.9286 39.4023 44.4324 41.6203 43.5861C42.7248 43.1646 43.7082 42.6311 44.4383 41.9725C45.1682 41.314 45.7514 40.4255 45.7514 39.3365V23.2413ZM43.1514 34.8309C42.6812 35.0951 42.1655 35.3304 41.6203 35.5384C39.4023 36.3848 36.426 36.881 33.203 36.881C29.98 36.881 27.0037 36.3848 24.7857 35.5384C24.2405 35.3304 23.7249 35.0951 23.2546 34.8309V39.3365C23.2546 39.4328 23.3008 39.6734 23.7094 40.042C24.1177 40.4103 24.7816 40.8016 25.7126 41.1569C27.5658 41.864 30.2137 42.3286 33.203 42.3286C36.1924 42.3286 38.8402 41.864 40.6934 41.1569C41.6245 40.8016 42.2883 40.4103 42.6967 40.042C43.1052 39.6734 43.1514 39.4328 43.1514 39.3365V34.8309Z" fill="#5B57A2"/>
</svg>
