<svg width="48" height="48" viewBox="0 0 48 48" fill="none" xmlns="http://www.w3.org/2000/svg">
<path fill-rule="evenodd" clip-rule="evenodd" d="M18.7472 5.6542C14.242 5.6542 10.5897 9.30646 10.5897 13.8117C10.5897 18.317 14.242 21.9693 18.7472 21.9693C23.2525 21.9693 26.9048 18.317 26.9048 13.8117C26.9048 9.30646 23.2525 5.6542 18.7472 5.6542ZM7.9897 13.8117C7.9897 7.87052 12.806 3.0542 18.7472 3.0542C24.6885 3.0542 29.5048 7.87052 29.5048 13.8117C29.5048 19.753 24.6885 24.5693 18.7472 24.5693C12.806 24.5693 7.9897 19.753 7.9897 13.8117ZM31.244 4.75874C31.5635 4.11578 32.3437 3.85359 32.9867 4.17311C36.5257 5.93184 38.9623 9.58605 38.9623 13.8117C38.9623 18.0374 36.5257 21.6917 32.9867 23.4504C32.3437 23.7699 31.5635 23.5077 31.244 22.8648C30.9245 22.2218 31.1867 21.4416 31.8296 21.122C34.5188 19.7856 36.3623 17.0128 36.3623 13.8117C36.3623 10.6107 34.5188 7.83786 31.8296 6.50145C31.1867 6.18193 30.9245 5.40169 31.244 4.75874ZM18.7472 30.8743C13.2974 30.8743 8.38964 33.846 5.24198 38.5721C4.8564 39.151 4.63851 39.4828 4.50673 39.7516C4.25615 40.2627 4.57444 40.7725 5.15394 40.8399C5.51862 40.8823 6.01029 40.8844 6.81467 40.8844H30.6798C31.4842 40.8844 31.9759 40.8823 32.3405 40.8399C32.8831 40.7768 33.2661 40.3192 32.9878 39.7516C32.856 39.4828 32.6381 39.151 32.2525 38.5721C29.1048 33.846 24.1971 30.8743 18.7472 30.8743ZM3.078 37.1308C6.63177 31.795 12.2989 28.2743 18.7472 28.2743C25.1955 28.2743 30.8627 31.795 34.4165 37.1308C34.736 37.6104 35.068 38.0885 35.3223 38.6071C35.5695 39.1113 35.7291 39.6508 35.691 40.2865C35.6607 40.791 35.4906 41.2783 35.2762 41.6788C35.0617 42.0793 34.7504 42.491 34.3473 42.7959C33.8119 43.2008 33.2232 43.3548 32.641 43.4225C32.108 43.4845 31.463 43.4844 30.7469 43.4844H6.74756C6.03154 43.4844 5.38648 43.4845 4.85352 43.4225C4.27134 43.3548 3.68257 43.2008 3.14719 42.7959C2.74407 42.491 2.43278 42.0793 2.21832 41.6788C2.00386 41.2783 1.83379 40.791 1.80351 40.2865C1.76535 39.6508 1.92502 39.1113 2.1722 38.6071C2.42645 38.0885 2.75852 37.6104 3.078 37.1308ZM35.4498 30.7496C35.7721 30.1081 36.5535 29.8492 37.1951 30.1715C40.487 31.8252 43.2838 34.4654 45.3141 37.736C45.6556 38.2861 46.0146 38.8263 46.1286 39.5617C46.2493 40.3402 46.0391 41.1107 45.7026 41.7156C45.3662 42.3205 44.8224 42.9054 44.0973 43.2135C43.4028 43.5086 42.6417 43.4844 41.8657 43.4844C41.1477 43.4844 40.5657 42.9024 40.5657 42.1844C40.5657 41.4664 41.1477 40.8844 41.8657 40.8844C42.8621 40.8844 42.9873 40.8602 43.0806 40.8205C43.3581 40.7026 43.6054 40.2579 43.5593 39.9599C43.5421 39.8495 43.5219 39.7787 43.1051 39.1072C41.3057 36.2086 38.8557 33.9154 36.0279 32.4948C35.3864 32.1726 35.1275 31.3912 35.4498 30.7496Z" fill="#E40646"/>
</svg>
