<svg width="32" height="32" viewBox="0 0 32 32" fill="none" xmlns="http://www.w3.org/2000/svg">
<path fill-rule="evenodd" clip-rule="evenodd" d="M2.8999 4.99193C2.8999 5.59952 2.94038 6.44601 3.10214 7.41424C3.42377 9.33936 4.23949 11.8271 6.25577 13.8384C8.36547 15.943 10.986 16.2626 12.9647 16.0981C13.7045 16.0366 14.3722 15.9069 14.9186 15.7687V18.5334H9.42892C8.86183 18.5334 8.38296 18.9791 8.33273 19.5417C8.30073 19.9124 8.28403 20.2847 8.27322 20.6566C8.25374 21.3272 8.25342 22.247 8.33244 23.2323C8.41091 24.2108 8.57056 25.2939 8.88774 26.2747C9.19849 27.2357 9.70377 28.2347 10.5671 28.8807C10.7574 29.023 10.9885 29.0999 11.2261 29.0999H20.8111C21.0487 29.0999 21.2799 29.023 21.4701 28.8807C22.3335 28.2347 22.8387 27.2357 23.1495 26.2747C23.4667 25.2939 23.6263 24.2108 23.7048 23.2323C23.7838 22.247 23.7835 21.3272 23.764 20.6566C23.7531 20.2822 23.7378 19.9067 23.7038 19.5335C23.6522 18.9671 23.1771 18.5334 22.6083 18.5334H17.1186V17.2667C17.6309 17.301 18.2713 17.3235 18.9841 17.3033C20.7318 17.2537 23.0524 16.9443 24.9704 15.7963C27.0203 14.5694 28.0201 12.2802 28.5202 10.5141C28.7779 9.60405 28.9216 8.76647 29.0012 8.15736C29.0454 7.81907 29.0821 7.47877 29.0986 7.13785C29.1231 6.57713 28.713 6.07406 28.1551 5.99456C27.2863 5.87757 26.4047 5.83417 25.5287 5.83417C24.0565 5.83417 22.0941 5.98485 20.4033 6.65953C18.7212 7.33074 17.4188 8.61208 16.5439 9.69334C15.9301 7.63908 14.8923 5.48609 12.9891 4.3469C11.2447 3.30285 8.91459 2.99817 7.15516 2.92185C6.25155 2.88266 5.44845 2.90227 4.87084 2.93156C4.55214 2.94773 4.23363 2.96959 3.91616 3.00221C3.40482 3.05889 3.00097 3.46327 2.94401 3.97459C2.90709 4.31166 2.8999 4.65322 2.8999 4.99193ZM5.10064 5.12306C5.10628 5.62469 5.14566 6.29512 5.27207 7.05171C5.54949 8.71227 6.23142 10.7067 7.80952 12.2809C9.2942 13.762 11.1667 14.04 12.7824 13.9057C13.6483 13.8337 14.4067 13.6436 14.9186 13.4837C14.9186 13.1217 14.9518 12.747 14.8988 12.3881C14.8383 11.978 14.6653 10.9866 14.3013 9.89734C13.7953 8.38315 13.0024 6.91885 11.8592 6.2346C10.6082 5.48583 8.74497 5.19288 7.05983 5.11979C6.30079 5.08686 5.61628 5.09971 5.10064 5.12306ZM17.1186 15.0611C17.5947 15.0971 18.2197 15.1241 18.9217 15.1042C20.5281 15.0586 22.4009 14.7704 23.8406 13.9086C25.1484 13.1258 25.9458 11.5306 26.4035 9.91465C26.5978 9.22824 26.7182 8.58287 26.7919 8.07439C26.4334 8.0517 26.0028 8.03417 25.5287 8.03417C24.1553 8.03417 22.5232 8.18231 21.2187 8.70286C19.9818 9.1964 18.9292 10.2184 18.1557 11.2004C17.7773 11.6809 17.4842 12.1282 17.2867 12.4537C17.2188 12.5655 17.1627 12.6623 17.1186 12.7403V15.0611ZM10.4719 20.7334C10.4543 21.3501 10.4551 22.1803 10.5254 23.0564C10.5967 23.9454 10.7366 24.8419 10.981 25.5978C11.1726 26.1902 11.4035 26.6188 11.651 26.8999H20.3863C20.6338 26.6188 20.8647 26.1902 21.0562 25.5978C21.3007 24.8419 21.4405 23.9454 21.5118 23.0564C21.5821 22.1803 21.5829 21.3501 21.5653 20.7334H10.4719Z" fill="#0698D6"/>
</svg>
