<svg width="48" height="48" viewBox="0 0 48 48" fill="none" xmlns="http://www.w3.org/2000/svg">
<path fill-rule="evenodd" clip-rule="evenodd" d="M11.8413 30.6944C10.4751 30.6522 9.14143 31.1157 8.09596 31.9961C7.16748 32.776 6.46168 33.8741 5.92186 34.9793C5.37477 36.0993 4.95435 37.3184 4.63737 38.4266C4.3192 39.5389 4.09757 40.5668 3.95541 41.3155C3.87853 41.7203 3.80823 42.1266 3.75001 42.5346C3.69386 42.9413 3.82319 43.3621 4.11544 43.6543C4.40187 43.9408 4.80544 44.0773 5.20694 44.0236C6.60256 43.8354 7.99086 43.5192 9.34322 43.1324C10.4514 42.8154 11.6705 42.395 12.7905 41.8479C13.8951 41.3084 14.9926 40.6031 15.7724 39.6753C17.5603 37.5585 17.5737 34.2732 15.5162 32.2418C14.5377 31.2918 13.2025 30.7365 11.8413 30.6944ZM6.64596 41.1238C7.22947 40.9998 7.91168 40.8376 8.62819 40.6327C9.649 40.3407 10.7123 39.9694 11.6494 39.5117C12.4264 39.1322 13.2211 38.6681 13.7854 37.9985C14.7609 36.8444 14.7108 35.1089 13.6973 34.0997C13.1726 33.6026 12.4835 33.3156 11.7609 33.2932C11.0346 33.2707 10.3255 33.5173 9.76986 33.9856C9.10061 34.5485 8.637 35.3446 8.25806 36.1204C7.80035 37.0575 7.42911 38.1208 7.13711 39.1416C6.93216 39.8581 6.77001 40.5403 6.64596 41.1238Z" fill="#E40646"/>
<path fill-rule="evenodd" clip-rule="evenodd" d="M17.1629 25.5223L22.2475 30.6069V39.812C22.2475 40.1974 22.4185 40.563 22.7144 40.81C23.0102 41.057 23.4005 41.16 23.7797 41.0911C24.9346 40.8793 26.0773 40.5448 27.1794 40.145C29.1318 39.4368 31.2339 38.415 32.424 36.6357C33.1148 35.5995 33.4152 34.3583 33.5247 33.1806C33.6352 31.9918 33.5598 30.7701 33.4209 29.6928C33.2658 28.4892 33.0263 27.4245 32.844 26.7134C42.8041 19.6192 44.3347 10.1527 44.3347 4.73511C44.3347 4.02029 43.7575 3.43957 43.0427 3.43514C38.539 3.4072 34.1029 4.53198 30.1566 6.70247C26.5255 8.69959 23.42 11.521 21.0866 14.9336C20.3754 14.7503 19.2978 14.5062 18.077 14.3489C16.9996 14.21 15.778 14.1346 14.5891 14.2451C13.3794 14.3576 12.1534 14.6649 11.1324 15.3469C9.34265 16.5442 8.25334 18.8575 7.62477 20.5904C7.29472 21.5003 7.05995 22.343 6.90761 22.9572C6.82477 23.2912 6.74828 23.6268 6.68336 23.9648C6.61171 24.3485 6.70827 24.7541 6.9598 25.0554C7.20679 25.3513 7.57234 25.5223 7.95775 25.5223H17.1629ZM19.225 23.9075L23.8654 28.5478C26.2202 27.5983 28.4853 26.4383 30.6328 25.0816C39.5036 19.1266 41.441 11.2232 41.7013 6.06378C33.9948 6.44556 26.794 10.6698 22.701 17.2142C21.363 19.3533 20.1808 21.5702 19.225 23.9075ZM24.8475 38.1637C25.2819 38.0416 25.7768 37.888 26.2928 37.7008C27.9842 37.0873 29.5678 36.2283 30.2612 35.1928C30.6224 34.6506 30.848 33.8849 30.9358 32.94C31.0832 31.3546 30.8586 29.736 30.5214 28.1868C28.6978 29.2416 26.8018 30.1667 24.8475 30.9552V38.1637ZM16.8189 22.9223C17.6176 20.9691 18.5552 19.076 19.6242 17.2574C18.0623 16.9145 16.429 16.6853 14.8298 16.834C13.8849 16.9218 13.1192 17.1474 12.577 17.5086C11.5415 18.202 10.6825 19.7856 10.0689 21.477C9.88178 21.993 9.72823 22.4879 9.60605 22.9223H16.8189Z" fill="#E40646"/>
</svg>
