<svg width="48" height="48" viewBox="0 0 48 48" fill="none" xmlns="http://www.w3.org/2000/svg">
<path fill-rule="evenodd" clip-rule="evenodd" d="M19.5078 12.9354C18.79 12.9354 18.2081 13.5173 18.2081 14.2351V22.3763H16.6279C15.9101 22.3763 15.3282 22.9582 15.3282 23.676C15.3282 24.3938 15.9101 24.9757 16.6279 24.9757H18.2081V28.5129H16.6279C15.9101 28.5129 15.3282 29.0948 15.3282 29.8126C15.3282 30.5304 15.9101 31.1123 16.6279 31.1123H18.2081V35.0051C18.2081 35.7229 18.79 36.3047 19.5078 36.3047C20.2256 36.3047 20.8075 35.7229 20.8075 35.0051V31.1123H26.2275C26.9453 31.1123 27.5272 30.5304 27.5272 29.8126C27.5272 29.0948 26.9453 28.5129 26.2275 28.5129H20.8075V24.9757H28.1474C31.4955 24.9757 34.2469 22.3007 34.2469 18.9556C34.2469 15.6104 31.4955 12.9354 28.1474 12.9354H19.5078ZM20.8075 22.3763V15.5348H28.1474C30.1009 15.5348 31.6475 17.0867 31.6475 18.9556C31.6475 20.8244 30.1009 22.3763 28.1474 22.3763H20.8075Z" fill="#5B57A2"/>
<path fill-rule="evenodd" clip-rule="evenodd" d="M24 1.70032C11.6842 1.70032 1.70032 11.6842 1.70032 24C1.70032 36.3158 11.6842 46.2997 24 46.2997C36.3158 46.2997 46.2997 36.3158 46.2997 24C46.2997 11.6842 36.3158 1.70032 24 1.70032ZM4.29971 24C4.29971 13.1198 13.1198 4.29971 24 4.29971C34.8802 4.29971 43.7003 13.1198 43.7003 24C43.7003 34.8802 34.8802 43.7003 24 43.7003C13.1198 43.7003 4.29971 34.8802 4.29971 24Z" fill="#5B57A2"/>
</svg>
