<svg width="20" height="20" viewBox="0 0 20 20" fill="none" xmlns="http://www.w3.org/2000/svg">
<path fill-rule="evenodd" clip-rule="evenodd" d="M19 18.0607L13.9703 13.0043C16.468 9.99056 16.1564 5.5459 13.2624 2.91024C10.3685 0.274591 5.91416 0.378558 3.14636 3.14636C0.378558 5.91416 0.274591 10.3685 2.91024 13.2624C5.5459 16.1564 9.99056 16.468 13.0043 13.9703L18.0607 19L19 18.0607ZM2.34526 8.34096C2.34526 5.02963 5.02963 2.34526 8.34097 2.34526C11.6523 2.34526 14.3367 5.02963 14.3367 8.34096C14.3367 11.6523 11.6523 14.3367 8.34097 14.3367C5.02963 14.3367 2.34526 11.6523 2.34526 8.34096Z" fill="#8C8C8C"/>
</svg>
