<svg width="48" height="48" viewBox="0 0 48 48" fill="none" xmlns="http://www.w3.org/2000/svg">
<path fill-rule="evenodd" clip-rule="evenodd" d="M14.5482 13.0613V17.8666C14.5482 18.5845 15.1302 19.1666 15.8482 19.1666C16.5662 19.1666 17.1482 18.5845 17.1482 17.8666V13.0524L30.8528 13.0524V17.8666C30.8528 18.5845 31.4348 19.1666 32.1528 19.1666C32.8708 19.1666 33.4528 18.5845 33.4528 17.8666V13.0613C34.0453 13.0701 34.5476 13.0876 34.9892 13.1222C35.8526 13.1899 36.3805 13.3175 36.8018 13.5175C37.6647 13.9271 38.3863 14.5842 38.8747 15.4052C39.1131 15.8059 39.2894 16.3196 39.4374 17.1729C39.5881 18.042 39.6936 19.1571 39.8423 20.7433L41.0652 33.787C41.2411 35.6637 41.3644 36.9903 41.3738 38.0287C41.383 39.0533 41.2769 39.6689 41.0712 40.1478C40.6456 41.1385 39.8996 41.9576 38.953 42.4739C38.4954 42.7234 37.8924 42.8865 36.8714 42.9729C35.8367 43.0605 34.5043 43.0616 32.6194 43.0616H15.3816C13.4967 43.0616 12.1643 43.0605 11.1296 42.9729C10.1086 42.8865 9.50555 42.7234 9.048 42.4739C8.10136 41.9576 7.35545 41.1385 6.92979 40.1478C6.72405 39.6689 6.61798 39.0533 6.62724 38.0287C6.63663 36.9903 6.75991 35.6637 6.93585 33.787L8.15869 20.7433C8.3074 19.1571 8.41287 18.042 8.56359 17.1729C8.71156 16.3196 8.88792 15.8059 9.12631 15.4052C9.61471 14.5842 10.3363 13.9271 11.1992 13.5175C11.6205 13.3175 12.1484 13.1899 13.0118 13.1222C13.4534 13.0876 13.9557 13.0701 14.5482 13.0613ZM33.3652 10.4598C34.0495 10.4687 34.6546 10.488 35.1924 10.5302C36.2129 10.6102 37.0935 10.7779 37.9167 11.1687C39.2457 11.7995 40.357 12.8115 41.1092 14.0758C41.5751 14.859 41.8243 15.7201 41.9992 16.7287C42.1693 17.71 42.2834 18.9267 42.426 20.4474L43.6593 33.6033C43.8285 35.4076 43.9632 36.8438 43.9737 38.0052C43.9844 39.193 43.8697 40.2207 43.4601 41.1742C42.8045 42.6999 41.6558 43.9614 40.1979 44.7565C39.2868 45.2533 38.2743 45.4634 37.0907 45.5636C35.9334 45.6616 34.491 45.6616 32.6789 45.6616H15.3221C13.51 45.6616 12.0676 45.6616 10.9103 45.5636C9.72666 45.4634 8.71416 45.2533 7.80313 44.7565C6.34525 43.9614 5.19649 42.6999 4.54095 41.1742C4.13131 40.2207 4.01661 39.193 4.02735 38.0052C4.03785 36.8438 4.1725 35.4077 4.34165 33.6035L5.57505 20.4473C5.7176 18.9266 5.83165 17.7099 6.00183 16.7287C6.17673 15.7201 6.42592 14.859 6.89183 14.0758C7.644 12.8115 8.75528 11.7995 10.0843 11.1687C10.9075 10.7779 11.7881 10.6102 12.8086 10.5302C13.3464 10.488 13.9515 10.4687 14.6358 10.4598C15.266 5.85097 19.2186 2.30005 24.0005 2.30005C28.7824 2.30005 32.735 5.85097 33.3652 10.4598ZM30.7297 10.4524C30.1223 7.28959 27.3404 4.90005 24.0005 4.90005C20.6606 4.90005 17.8787 7.28959 17.2714 10.4524L30.7297 10.4524Z" fill="#0698D6"/>
</svg>
