<svg xmlns="http://www.w3.org/2000/svg">
    <symbol id="beach-icon" viewBox="0 0 32 32">
        <path fill-rule="evenodd" clip-rule="evenodd" d="M17.8224 5.25265C14.0104 4.60654 10.0499 6.03719 7.54878 9.11487C7.33687 9.37564 7.22344 9.52862 7.19662 9.57537C7.21696 9.80982 7.65218 9.91169 7.82034 10.0088L11.4566 12.1082C13.0419 9.57194 14.8628 7.47607 16.6221 6.09175C17.0191 5.77932 17.4205 5.4972 17.8224 5.25265ZM5.84146 7.72741C5.54436 8.093 5.13248 8.55234 5.02326 9.21424C4.8793 10.0868 5.26126 10.9433 5.96863 11.451C6.18546 11.6067 6.45434 11.7605 6.72034 11.914C9.3124 13.4106 11.9045 14.9071 14.4965 16.4036L8.43643 26.9H4.00015C3.39263 26.9 2.90015 27.3925 2.90015 28C2.90015 28.6075 3.39263 29.1 4.00015 29.1H27.9981C28.6057 29.1 29.0981 28.6075 29.0981 28C29.0981 27.3925 28.6057 26.9 27.9981 26.9H10.9768L16.4018 17.5036L24.2124 22.0131C24.467 22.1601 24.7221 22.3075 24.9548 22.4127C25.7482 22.7714 26.6809 22.6739 27.3646 22.113C27.8832 21.6875 28.0751 21.1011 28.2431 20.661C30.4987 14.7544 28.1994 7.91938 22.5486 4.65692C16.8974 1.39374 9.82889 2.82072 5.84146 7.72741ZM21.4486 6.56217C21.2211 6.43079 20.8436 6.36136 20.2235 6.54621C19.6003 6.73198 18.8365 7.14865 17.9825 7.82067C16.4768 9.00546 14.8329 10.8714 13.3631 13.2089L19.7352 16.8878C21.0247 14.4462 21.8186 12.0895 22.0918 10.1932C22.2468 9.11756 22.2258 8.24781 22.0751 7.61522C21.9251 6.98574 21.6762 6.69356 21.4486 6.56217ZM21.6417 17.9886C23.0455 15.3475 23.9501 12.7226 24.2693 10.5069C24.3414 10.0068 24.385 9.51814 24.3958 9.04781C26.8614 12.0261 27.6027 16.1713 26.1879 19.8762C26.1288 20.0309 26.106 20.3775 25.9139 20.4302C25.6905 20.3461 25.4834 20.2066 25.278 20.0879L21.6417 17.9886Z" fill="#78B72A"/>
    </symbol>
    <symbol id="box-icon" viewBox="0 0 48 48">
        <path fill-rule="evenodd" clip-rule="evenodd" d="M9.3158 1.7002C10.0338 1.7002 10.6158 2.28223 10.6158 3.0002V8.09493H15.6316C16.3496 8.09493 16.9316 8.67696 16.9316 9.39493C16.9316 10.1129 16.3496 10.6949 15.6316 10.6949H10.6158V15.7897C10.6158 16.5076 10.0338 17.0897 9.3158 17.0897C8.59783 17.0897 8.0158 16.5076 8.0158 15.7897V10.6949H3.00001C2.28204 10.6949 1.70001 10.1129 1.70001 9.39493C1.70001 8.67696 2.28204 8.09493 3.00001 8.09493H8.0158V3.0002C8.0158 2.28223 8.59783 1.7002 9.3158 1.7002ZM36.9358 6.51447C35.9486 6.43281 34.6851 6.43177 32.8947 6.43177H24.0526C23.3347 6.43177 22.7526 5.84974 22.7526 5.13177C22.7526 4.4138 23.3347 3.83177 24.0526 3.83177L32.9521 3.83177C34.6721 3.83176 36.0432 3.83175 37.1501 3.92332C38.285 4.0172 39.2568 4.21392 40.1476 4.67344C41.5818 5.41338 42.7449 6.59245 43.4729 8.03898C43.9239 8.93531 44.1173 9.91327 44.2098 11.0587C44.3 12.1775 44.3 13.5642 44.3 15.3073V33.3247C44.3 35.0678 44.3 36.4544 44.2098 37.5732C44.1173 38.7187 43.9239 39.6967 43.4729 40.593C42.7449 42.0395 41.5818 43.2186 40.1476 43.9585C39.2568 44.4181 38.285 44.6148 37.1501 44.7086C36.0432 44.8002 34.6721 44.8002 32.9522 44.8002H15.1531C13.4332 44.8002 12.0621 44.8002 10.9552 44.7086C9.82031 44.6148 8.84847 44.4181 7.95773 43.9585C6.52346 43.2186 5.36035 42.0395 4.63241 40.593C4.18134 39.6967 3.98797 38.7187 3.89553 37.5732C3.80526 36.4545 3.80526 35.0679 3.80528 33.3248L3.80528 24.316C3.80528 23.598 4.38731 23.016 5.10528 23.016C5.82325 23.016 6.40528 23.598 6.40528 24.316V33.2686C6.40528 35.0805 6.40626 36.3622 6.48711 37.3641C6.56677 38.3513 6.71759 38.9526 6.9549 39.4242C7.43799 40.3842 8.20727 41.1617 9.14978 41.6479C9.61006 41.8853 10.198 42.0371 11.1695 42.1175C12.1567 42.1992 13.4202 42.2002 15.2105 42.2002H32.8947C34.6851 42.2002 35.9486 42.1992 36.9358 42.1175C37.9073 42.0371 38.4952 41.8853 38.9555 41.6479C39.898 41.1617 40.6673 40.3842 41.1504 39.4242C41.3877 38.9526 41.5385 38.3513 41.6182 37.3641C41.699 36.3622 41.7 35.0805 41.7 33.2686V15.3634C41.7 13.5515 41.699 12.2698 41.6182 11.2679C41.5385 10.2807 41.3877 9.67932 41.1504 9.20774C40.6673 8.24778 39.898 7.47031 38.9555 6.98408C38.4952 6.74662 37.9073 6.59484 36.9358 6.51447ZM24.0526 12.3581C24.7706 12.3581 25.3526 12.9401 25.3526 13.6581V34.9739C25.3526 35.6918 24.7706 36.2739 24.0526 36.2739C23.3347 36.2739 22.7526 35.6918 22.7526 34.9739V13.6581C22.7526 12.9401 23.3347 12.3581 24.0526 12.3581ZM32.4737 20.8844C33.1917 20.8844 33.7737 21.4664 33.7737 22.1844V34.9739C33.7737 35.6918 33.1917 36.2739 32.4737 36.2739C31.7557 36.2739 31.1737 35.6918 31.1737 34.9739V22.1844C31.1737 21.4664 31.7557 20.8844 32.4737 20.8844ZM15.6316 25.1476C16.3496 25.1476 16.9316 25.7296 16.9316 26.4476V34.9739C16.9316 35.6918 16.3496 36.2739 15.6316 36.2739C14.9136 36.2739 14.3316 35.6918 14.3316 34.9739V26.4476C14.3316 25.7296 14.9136 25.1476 15.6316 25.1476Z" fill="#EF8019"/>
    </symbol>
    <symbol id="coins-icon" viewBox="0 0 48 48">
        <path fill-rule="evenodd" clip-rule="evenodd" d="M5.30286 8.58661C4.89434 8.95515 4.84811 9.19574 4.84811 9.29202C4.84811 9.3883 4.89434 9.6289 5.30286 9.99744C5.71118 10.3658 6.37509 10.7571 7.30614 11.1124C9.15929 11.8195 11.8072 12.2841 14.7965 12.2841C17.7859 12.2841 20.4337 11.8195 22.2869 11.1124C23.218 10.7571 23.8819 10.3658 24.2902 9.99744C24.6987 9.6289 24.7449 9.3883 24.7449 9.29202C24.7449 9.19574 24.6987 8.95515 24.2902 8.58661C23.8819 8.21824 23.218 7.82692 22.2869 7.47165C20.4337 6.76454 17.7859 6.29995 14.7965 6.29995C11.8072 6.29995 9.15929 6.76454 7.30614 7.47165C6.37509 7.82692 5.71118 8.21824 5.30286 8.58661ZM24.7804 12.814C24.9169 13.3858 25.4312 13.8111 26.0449 13.8111C26.7629 13.8111 27.3449 13.229 27.3449 12.5111V9.29202C27.3449 8.20308 26.7617 7.31456 26.0318 6.6561C25.3017 5.99747 24.3183 5.46393 23.2138 5.04249C20.9958 4.19617 18.0195 3.69995 14.7965 3.69995C11.5735 3.69995 8.59722 4.19617 6.37924 5.04249C5.27473 5.46393 4.29134 5.99747 3.56127 6.6561C2.83139 7.31456 2.24811 8.20308 2.24811 9.29202V35.0445C2.24811 36.1334 2.83139 37.0219 3.56127 37.6804C4.29134 38.339 5.27473 38.8726 6.37924 39.294C8.59722 40.1403 11.5735 40.6365 14.7965 40.6365C15.5145 40.6365 16.0965 40.0545 16.0965 39.3365C16.0965 38.6186 15.5145 38.0365 14.7965 38.0365C11.8072 38.0365 9.15929 37.5719 7.30614 36.8648C6.37509 36.5096 5.71118 36.1182 5.30286 35.7499C4.89434 35.3813 4.84811 35.1407 4.84811 35.0445V30.0023C5.31838 30.2665 5.83405 30.5018 6.37924 30.7099C8.59722 31.5562 11.5735 32.0524 14.7965 32.0524C15.5145 32.0524 16.0965 31.4704 16.0965 30.7524C16.0965 30.0344 15.5145 29.4524 14.7965 29.4524C11.8072 29.4524 9.15929 28.9878 7.30614 28.2807C6.37509 27.9254 5.71118 27.5341 5.30286 27.1657C4.89434 26.7972 4.84811 26.5566 4.84811 26.4603V21.4181C5.21286 21.6231 5.60371 21.8099 6.01247 21.9797C8.03403 22.8193 10.7533 23.3476 13.7293 23.45C14.081 23.4621 14.437 23.4682 14.7965 23.4682C15.5145 23.4682 16.0965 22.8862 16.0965 22.1682C16.0965 21.4503 15.5145 20.8682 14.7965 20.8682C14.4667 20.8682 14.1405 20.8626 13.8186 20.8515C11.0615 20.7567 8.66781 20.2672 7.00974 19.5786C6.17722 19.2328 5.59428 18.8632 5.23992 18.523C4.88875 18.186 4.84811 17.9681 4.84811 17.8762V12.834C5.31838 13.0982 5.83405 13.3335 6.37924 13.5416C8.59722 14.3879 11.5735 14.8841 14.7965 14.8841C18.0195 14.8841 20.9958 14.3879 23.2138 13.5416C23.7727 13.3283 24.3006 13.0863 24.7804 12.814ZM23.7094 22.5358C23.3008 22.9044 23.2546 23.145 23.2546 23.2413C23.2546 23.3375 23.3008 23.5781 23.7094 23.9467C24.1177 24.315 24.7816 24.7064 25.7126 25.0616C27.5658 25.7687 30.2137 26.2333 33.203 26.2333C36.1924 26.2333 38.8402 25.7687 40.6934 25.0616C41.6245 24.7064 42.2883 24.315 42.6967 23.9467C43.1052 23.5781 43.1514 23.3375 43.1514 23.2413C43.1514 23.145 43.1052 22.9044 42.6967 22.5358C42.2883 22.1675 41.6245 21.7762 40.6934 21.4209C38.8402 20.7138 36.1924 20.2492 33.203 20.2492C30.2137 20.2492 27.5658 20.7138 25.7126 21.4209C24.7816 21.7762 24.1177 22.1675 23.7094 22.5358ZM43.1514 26.7832C42.6812 27.0474 42.1655 27.2828 41.6203 27.4908C39.4023 28.3371 36.426 28.8333 33.203 28.8333C29.98 28.8333 27.0037 28.3371 24.7857 27.4908C24.2405 27.2828 23.7249 27.0474 23.2546 26.7832V31.2889C23.2546 31.3852 23.3008 31.6258 23.7094 31.9943C24.1177 32.3627 24.7816 32.754 25.7126 33.1093C27.5658 33.8164 30.2137 34.281 33.203 34.281C36.1924 34.281 38.8402 33.8164 40.6934 33.1093C41.6245 32.754 42.2883 32.3627 42.6967 31.9943C43.1052 31.6258 43.1514 31.3852 43.1514 31.2889V26.7832ZM45.7514 23.2413C45.7514 22.1523 45.1682 21.2638 44.4383 20.6053C43.7082 19.9467 42.7248 19.4132 41.6203 18.9917C39.4023 18.1454 36.426 17.6492 33.203 17.6492C29.98 17.6492 27.0037 18.1454 24.7857 18.9917C23.6812 19.4132 22.6978 19.9467 21.9678 20.6053C21.2379 21.2638 20.6546 22.1523 20.6546 23.2413V39.3365C20.6546 40.4255 21.2379 41.314 21.9678 41.9725C22.6978 42.6311 23.6812 43.1646 24.7857 43.5861C27.0037 44.4324 29.98 44.9286 33.203 44.9286C36.426 44.9286 39.4023 44.4324 41.6203 43.5861C42.7248 43.1646 43.7082 42.6311 44.4383 41.9725C45.1682 41.314 45.7514 40.4255 45.7514 39.3365V23.2413ZM43.1514 34.8309C42.6812 35.0951 42.1655 35.3304 41.6203 35.5384C39.4023 36.3848 36.426 36.881 33.203 36.881C29.98 36.881 27.0037 36.3848 24.7857 35.5384C24.2405 35.3304 23.7249 35.0951 23.2546 34.8309V39.3365C23.2546 39.4328 23.3008 39.6734 23.7094 40.042C24.1177 40.4103 24.7816 40.8016 25.7126 41.1569C27.5658 41.864 30.2137 42.3286 33.203 42.3286C36.1924 42.3286 38.8402 41.864 40.6934 41.1569C41.6245 40.8016 42.2883 40.4103 42.6967 40.042C43.1052 39.6734 43.1514 39.4328 43.1514 39.3365V34.8309Z" fill="#5B57A2"/>
    </symbol>
    <symbol id="cup-icon" viewBox="0 0 32 32">
        <path d="M12.7657 2.00596C12.4008 1.52026 11.7112 1.42236 11.2256 1.78728C10.7405 2.15171 10.6422 2.8399 11.0054 3.32548C11.139 3.50722 11.2568 3.7022 11.3622 3.90134C11.5685 4.29086 11.6591 4.60248 11.6522 4.75676C11.6928 4.7954 11.3871 5.04099 11.3394 5.08179C11.0323 5.34924 10.3998 5.89994 10.355 6.89617C10.3201 7.67455 10.6618 8.43263 10.8984 8.87965C11.0572 9.17963 11.2353 9.47382 11.4393 9.74569C11.8042 10.2314 12.4938 10.3293 12.9795 9.96436C13.4645 9.59993 13.5627 8.91162 13.1995 8.42603C13.0674 8.24286 12.9484 8.04985 12.8428 7.8503C12.6366 7.46078 12.5459 7.14916 12.5528 6.99488C12.519 6.96271 12.8264 6.70415 12.8656 6.66985C13.1728 6.40241 13.8052 5.8517 13.85 4.85547C13.885 4.07709 13.5432 3.31901 13.3066 2.87199C13.1478 2.57201 12.9697 2.27784 12.7657 2.00596Z" fill="#EF8019"/>
        <path fill-rule="evenodd" clip-rule="evenodd" d="M2.65063 12.9359C2.65063 12.3284 3.14312 11.8359 3.75064 11.8359H24.9307C26.3983 11.8359 27.8252 12.267 28.9626 13.2211C30.0446 14.1285 30.7005 15.4051 30.7005 16.7869V17.7496C30.7005 19.1313 30.0446 20.4079 28.9626 21.3154C27.9665 22.1509 26.6723 22.6264 25.333 22.6925C25.0385 23.5065 24.6531 24.2891 24.1813 25.0248C23.6584 25.8402 23.0389 26.5833 22.3395 27.2396H24.931C25.5385 27.2396 26.031 27.732 26.031 28.3396C26.031 28.9471 25.5385 29.4396 24.931 29.4396C17.8706 29.4396 10.8113 29.4396 3.75088 29.4396C3.14337 29.4396 2.65088 28.9471 2.65088 28.3396C2.65088 27.732 3.14337 27.2396 3.75088 27.2396H6.34189C5.64246 26.5833 5.02299 25.8402 4.50008 25.0248C3.29211 23.141 2.65022 20.9501 2.65063 18.7123V12.9359ZM22.3293 23.8372C21.3909 25.3007 20.0693 26.477 18.5102 27.2396H10.1712C8.61212 26.477 7.2905 25.3007 6.35202 23.8372C5.37136 22.3079 4.85026 20.5291 4.85064 18.7123V14.0359H23.8307V18.7126C23.8311 20.4882 23.29 22.3391 22.3293 23.8372ZM25.9076 20.4068C26.5378 20.273 27.1058 20.0014 27.5489 19.6298C28.189 19.0929 28.5005 18.4105 28.5005 17.7496V16.7869C28.5005 16.126 28.189 15.4435 27.5489 14.9066C27.1348 14.5594 26.6117 14.2995 26.0307 14.1577V18.7121C26.0308 19.2815 25.9894 19.8478 25.9076 20.4068Z" fill="#EF8019"/>
        <path d="M16.3603 1.78728C16.846 1.42236 17.5356 1.52026 17.9005 2.00596C18.1044 2.27784 18.2825 2.57201 18.4413 2.87199C18.678 3.31901 19.0197 4.07709 18.9848 4.85547C18.94 5.8517 18.3075 6.40241 18.0004 6.66985C17.9665 6.69997 17.6563 6.96515 17.6876 6.99488C17.6806 7.14916 17.7713 7.46078 17.9775 7.8503C18.0832 8.04985 18.2022 8.24286 18.3343 8.42603C18.6975 8.91162 18.5993 9.59993 18.1142 9.96436C17.6285 10.3293 16.939 10.2314 16.574 9.74569C16.3701 9.47382 16.192 9.17963 16.0332 8.87965C15.7965 8.43263 15.4548 7.67455 15.4898 6.89617C15.5345 5.89994 16.167 5.34924 16.4742 5.08179C16.5355 5.02844 16.8239 4.79191 16.787 4.75676C16.7939 4.60248 16.7032 4.29086 16.497 3.90134C16.3916 3.7022 16.2738 3.50722 16.1402 3.32548C15.777 2.8399 15.8753 2.15171 16.3603 1.78728Z" fill="#EF8019"/>
    </symbol>
    <symbol id="gear-icon" viewBox="0 0 48 48">
        <path fill-rule="evenodd" clip-rule="evenodd" d="M23.9997 15.6759C19.4026 15.6759 15.676 19.4025 15.676 23.9995C15.676 28.5966 19.4026 32.3232 23.9997 32.3232C28.5967 32.3232 32.3233 28.5966 32.3233 23.9995C32.3233 19.4025 28.5967 15.6759 23.9997 15.6759ZM18.276 23.9995C18.276 20.8385 20.8386 18.2759 23.9997 18.2759C27.1607 18.2759 29.7233 20.8385 29.7233 23.9995C29.7233 27.1606 27.1607 29.7232 23.9997 29.7232C20.8386 29.7232 18.276 27.1606 18.276 23.9995Z" fill="#0698D6"/>
        <path fill-rule="evenodd" clip-rule="evenodd" d="M19.4049 2.73528C19.0835 2.47848 18.6596 2.38895 18.2618 2.49388C16.3709 2.9927 14.5546 3.74061 12.8607 4.71797C12.5031 4.92436 12.2647 5.28843 12.2186 5.69882L11.6446 10.8075C11.3626 11.0722 11.0891 11.3456 10.8245 11.6276L5.71372 12.2016C5.30397 12.2477 4.94035 12.4853 4.73376 12.8422C3.75189 14.5382 2.99962 16.3571 2.4967 18.2512C2.39097 18.6494 2.48024 19.0741 2.73732 19.396L5.94609 23.4142C5.93388 23.801 5.93388 24.188 5.94609 24.5748L2.73546 28.5929C2.47807 28.915 2.38876 29.3401 2.49476 29.7386C2.99864 31.6327 3.75257 33.4513 4.73666 35.1463C4.94231 35.5005 5.30286 35.7371 5.70967 35.7848L10.8263 36.3841C11.0916 36.667 11.3659 36.9414 11.6487 37.2068L12.2228 42.3176C12.2689 42.7282 12.5074 43.0924 12.8654 43.2987C14.562 44.2767 16.3809 45.0253 18.2744 45.5247C18.672 45.6295 19.0958 45.5401 19.4172 45.2835L23.4353 42.0747C23.8221 42.0869 24.2092 42.0869 24.5959 42.0747L28.614 45.2853C28.9361 45.5427 29.3612 45.6321 29.7597 45.5261C31.6538 45.0222 33.4724 44.2682 35.1674 43.2841C35.5235 43.0774 35.7606 42.7142 35.8066 42.305L36.3806 37.1963C36.6626 36.9317 36.9361 36.6582 37.2007 36.3763L42.3115 35.8022C42.7221 35.7561 43.0863 35.5176 43.2926 35.1596C44.2706 33.463 45.0191 31.6441 45.5186 29.7506C45.6234 29.353 45.534 28.9292 45.2774 28.6078L42.0686 24.5897C42.0808 24.2029 42.0808 23.8158 42.0686 23.4291L45.2792 19.411C45.5366 19.0889 45.6259 18.6637 45.5199 18.2653C45.0161 16.3712 44.2621 14.5526 43.278 12.8576C43.0713 12.5015 42.7081 12.2644 42.2989 12.2184L37.1902 11.6444C36.9256 11.3624 36.6521 11.0889 36.3702 10.8243L35.7961 5.71354C35.7501 5.30379 35.5124 4.94016 35.1556 4.73358C33.4596 3.75171 31.6407 2.99944 29.7466 2.49651C29.3484 2.39079 28.9236 2.48006 28.6017 2.73714L24.5836 5.94591C24.1968 5.9337 23.8097 5.9337 23.423 5.9459L19.4049 2.73528ZM14.1738 11.5833L14.7275 6.6551C15.8676 6.04698 17.0654 5.55385 18.3031 5.183L22.1818 8.28221C22.4328 8.48281 22.7493 8.58332 23.0701 8.56434C23.6916 8.52756 24.3147 8.52756 24.9362 8.56434C25.2569 8.58331 25.5732 8.4829 25.8243 8.28244L29.7019 5.18585C30.9432 5.55987 32.1442 6.05654 33.287 6.66851L33.8409 11.6C33.8768 11.9192 34.0296 12.2139 34.2698 12.4272C34.7348 12.8398 35.1747 13.2798 35.5874 13.7447C35.8006 13.9849 36.0952 14.1377 36.4145 14.1736L41.3449 14.7276C41.9581 15.8695 42.4557 17.0698 42.8304 18.3106L39.7323 22.1879C39.5317 22.4389 39.4312 22.7554 39.4502 23.0762C39.487 23.6977 39.487 24.3208 39.4502 24.9423C39.4312 25.263 39.5316 25.5794 39.7321 25.8304L42.8295 29.7091C42.458 30.9498 41.9641 32.1504 41.3549 33.2933L36.425 33.847C36.1058 33.8829 35.8111 34.0357 35.5978 34.2759C35.1852 34.7409 34.7452 35.1808 34.2803 35.5935C34.0401 35.8067 33.8873 36.1014 33.8514 36.4206L33.2974 41.351C32.1555 41.9642 30.9552 42.4618 29.7144 42.8365L25.8371 39.7384C25.5861 39.5378 25.2696 39.4373 24.9488 39.4563C24.3273 39.4931 23.7042 39.4931 23.0826 39.4563C22.762 39.4373 22.4456 39.5377 22.1946 39.7382L18.3159 42.8356C17.0752 42.4642 15.8746 41.9702 14.7317 41.361L14.178 36.4311C14.1421 36.1119 13.9893 35.8172 13.7491 35.604C13.2841 35.1913 12.8442 34.7513 12.4315 34.2864C12.2197 34.0478 11.9275 33.8953 11.6105 33.8582L6.67163 33.2797C6.0576 32.1367 5.55933 30.9353 5.18427 29.6933L8.28239 25.816C8.483 25.5649 8.5835 25.2485 8.56452 24.9277C8.52774 24.3062 8.52774 23.683 8.56452 23.0615C8.5835 22.7408 8.48308 22.4245 8.28263 22.1735L5.18603 18.2958C5.56005 17.0546 6.05672 15.8536 6.66869 14.7107L11.6002 14.1568C11.9194 14.121 12.2141 13.9682 12.4273 13.7279C12.84 13.263 13.2799 12.823 13.7449 12.4104C13.9851 12.1972 14.1379 11.9025 14.1738 11.5833Z" fill="#0698D6"/>
    </symbol>
    <symbol id="lightning-icon" viewBox="0 0 48 48">
        <path fill-rule="evenodd" clip-rule="evenodd" d="M35.022 3.80889C35.5773 4.02836 35.9117 4.59786 35.8327 5.1897L33.9198 19.5364L42.9193 19.5364C43.7895 19.5363 44.8034 19.4633 45.5338 20.027C46.0872 20.4541 46.4222 21.1051 46.4481 21.8037C46.4823 22.7258 45.8335 23.5084 45.3276 24.2165L31.3837 43.7379C31.0367 44.2238 30.4033 44.4108 29.848 44.1913C29.2928 43.9718 28.9584 43.4024 29.0373 42.8105L30.9502 28.4638L21.9508 28.4638C21.0805 28.4639 20.0667 28.537 19.3362 27.9732C18.7828 27.5461 18.4478 26.8951 18.4219 26.1965C18.3877 25.2745 19.0364 24.4919 19.5423 23.7838L33.4863 4.26227C33.8333 3.77641 34.4667 3.58942 35.022 3.80889ZM32.565 10.0253L21.6892 25.2514C21.5073 25.506 21.368 25.7018 21.2605 25.8593C21.4512 25.8634 21.6914 25.8638 22.0044 25.8638H32.435C32.8097 25.8638 33.1663 26.0255 33.4131 26.3075C33.66 26.5894 33.7731 26.9642 33.7236 27.3356L32.305 37.9749L43.1808 22.7488C43.3627 22.4942 43.502 22.2985 43.6095 22.1409C43.4188 22.1368 43.1786 22.1364 42.8656 22.1364H32.435C32.0603 22.1364 31.7038 21.9747 31.4569 21.6927C31.2101 21.4108 31.0969 21.036 31.1464 20.6646L32.565 10.0253ZM5.82539 12.3999C5.82539 11.6819 6.40742 11.0999 7.12539 11.0999H17.6711C18.389 11.0999 18.9711 11.6819 18.9711 12.3999C18.9711 13.1178 18.389 13.6999 17.6711 13.6999H7.12539C6.40742 13.6999 5.82539 13.1178 5.82539 12.3999ZM1.60712 24.0001C1.60712 23.2821 2.18915 22.7001 2.90712 22.7001H12.3982C13.1162 22.7001 13.6982 23.2821 13.6982 24.0001C13.6982 24.7181 13.1162 25.3001 12.3982 25.3001H2.90712C2.18915 25.3001 1.60712 24.7181 1.60712 24.0001ZM4.77082 35.6003C4.77082 34.8824 5.35285 34.3004 6.07082 34.3004H17.6711C18.389 34.3004 18.9711 34.8824 18.9711 35.6003C18.9711 36.3183 18.389 36.9003 17.6711 36.9003H6.07082C5.35285 36.9003 4.77082 36.3183 4.77082 35.6003Z" fill="#EF8019"/>
    </symbol>
    <symbol id="people-icon" viewBox="0 0 48 48">
        <path fill-rule="evenodd" clip-rule="evenodd" d="M18.7472 5.6542C14.242 5.6542 10.5897 9.30646 10.5897 13.8117C10.5897 18.317 14.242 21.9693 18.7472 21.9693C23.2525 21.9693 26.9048 18.317 26.9048 13.8117C26.9048 9.30646 23.2525 5.6542 18.7472 5.6542ZM7.9897 13.8117C7.9897 7.87052 12.806 3.0542 18.7472 3.0542C24.6885 3.0542 29.5048 7.87052 29.5048 13.8117C29.5048 19.753 24.6885 24.5693 18.7472 24.5693C12.806 24.5693 7.9897 19.753 7.9897 13.8117ZM31.244 4.75874C31.5635 4.11578 32.3437 3.85359 32.9867 4.17311C36.5257 5.93184 38.9623 9.58605 38.9623 13.8117C38.9623 18.0374 36.5257 21.6917 32.9867 23.4504C32.3437 23.7699 31.5635 23.5077 31.244 22.8648C30.9245 22.2218 31.1867 21.4416 31.8296 21.122C34.5188 19.7856 36.3623 17.0128 36.3623 13.8117C36.3623 10.6107 34.5188 7.83786 31.8296 6.50145C31.1867 6.18193 30.9245 5.40169 31.244 4.75874ZM18.7472 30.8743C13.2974 30.8743 8.38964 33.846 5.24198 38.5721C4.8564 39.151 4.63851 39.4828 4.50673 39.7516C4.25615 40.2627 4.57444 40.7725 5.15394 40.8399C5.51862 40.8823 6.01029 40.8844 6.81467 40.8844H30.6798C31.4842 40.8844 31.9759 40.8823 32.3405 40.8399C32.8831 40.7768 33.2661 40.3192 32.9878 39.7516C32.856 39.4828 32.6381 39.151 32.2525 38.5721C29.1048 33.846 24.1971 30.8743 18.7472 30.8743ZM3.078 37.1308C6.63177 31.795 12.2989 28.2743 18.7472 28.2743C25.1955 28.2743 30.8627 31.795 34.4165 37.1308C34.736 37.6104 35.068 38.0885 35.3223 38.6071C35.5695 39.1113 35.7291 39.6508 35.691 40.2865C35.6607 40.791 35.4906 41.2783 35.2762 41.6788C35.0617 42.0793 34.7504 42.491 34.3473 42.7959C33.8119 43.2008 33.2232 43.3548 32.641 43.4225C32.108 43.4845 31.463 43.4844 30.7469 43.4844H6.74756C6.03154 43.4844 5.38648 43.4845 4.85352 43.4225C4.27134 43.3548 3.68257 43.2008 3.14719 42.7959C2.74407 42.491 2.43278 42.0793 2.21832 41.6788C2.00386 41.2783 1.83379 40.791 1.80351 40.2865C1.76535 39.6508 1.92502 39.1113 2.1722 38.6071C2.42645 38.0885 2.75852 37.6104 3.078 37.1308ZM35.4498 30.7496C35.7721 30.1081 36.5535 29.8492 37.1951 30.1715C40.487 31.8252 43.2838 34.4654 45.3141 37.736C45.6556 38.2861 46.0146 38.8263 46.1286 39.5617C46.2493 40.3402 46.0391 41.1107 45.7026 41.7156C45.3662 42.3205 44.8224 42.9054 44.0973 43.2135C43.4028 43.5086 42.6417 43.4844 41.8657 43.4844C41.1477 43.4844 40.5657 42.9024 40.5657 42.1844C40.5657 41.4664 41.1477 40.8844 41.8657 40.8844C42.8621 40.8844 42.9873 40.8602 43.0806 40.8205C43.3581 40.7026 43.6054 40.2579 43.5593 39.9599C43.5421 39.8495 43.5219 39.7787 43.1051 39.1072C41.3057 36.2086 38.8557 33.9154 36.0279 32.4948C35.3864 32.1726 35.1275 31.3912 35.4498 30.7496Z" fill="#E40646"/>
    </symbol>
    <symbol id="plant-icon" viewBox="0 0 32 32">
        <path fill-rule="evenodd" clip-rule="evenodd" d="M2.8999 4.99193C2.8999 5.59952 2.94038 6.44601 3.10214 7.41424C3.42377 9.33936 4.23949 11.8271 6.25577 13.8384C8.36547 15.943 10.986 16.2626 12.9647 16.0981C13.7045 16.0366 14.3722 15.9069 14.9186 15.7687V18.5334H9.42892C8.86183 18.5334 8.38296 18.9791 8.33273 19.5417C8.30073 19.9124 8.28403 20.2847 8.27322 20.6566C8.25374 21.3272 8.25342 22.247 8.33244 23.2323C8.41091 24.2108 8.57056 25.2939 8.88774 26.2747C9.19849 27.2357 9.70377 28.2347 10.5671 28.8807C10.7574 29.023 10.9885 29.0999 11.2261 29.0999H20.8111C21.0487 29.0999 21.2799 29.023 21.4701 28.8807C22.3335 28.2347 22.8387 27.2357 23.1495 26.2747C23.4667 25.2939 23.6263 24.2108 23.7048 23.2323C23.7838 22.247 23.7835 21.3272 23.764 20.6566C23.7531 20.2822 23.7378 19.9067 23.7038 19.5335C23.6522 18.9671 23.1771 18.5334 22.6083 18.5334H17.1186V17.2667C17.6309 17.301 18.2713 17.3235 18.9841 17.3033C20.7318 17.2537 23.0524 16.9443 24.9704 15.7963C27.0203 14.5694 28.0201 12.2802 28.5202 10.5141C28.7779 9.60405 28.9216 8.76647 29.0012 8.15736C29.0454 7.81907 29.0821 7.47877 29.0986 7.13785C29.1231 6.57713 28.713 6.07406 28.1551 5.99456C27.2863 5.87757 26.4047 5.83417 25.5287 5.83417C24.0565 5.83417 22.0941 5.98485 20.4033 6.65953C18.7212 7.33074 17.4188 8.61208 16.5439 9.69334C15.9301 7.63908 14.8923 5.48609 12.9891 4.3469C11.2447 3.30285 8.91459 2.99817 7.15516 2.92185C6.25155 2.88266 5.44845 2.90227 4.87084 2.93156C4.55214 2.94773 4.23363 2.96959 3.91616 3.00221C3.40482 3.05889 3.00097 3.46327 2.94401 3.97459C2.90709 4.31166 2.8999 4.65322 2.8999 4.99193ZM5.10064 5.12306C5.10628 5.62469 5.14566 6.29512 5.27207 7.05171C5.54949 8.71227 6.23142 10.7067 7.80952 12.2809C9.2942 13.762 11.1667 14.04 12.7824 13.9057C13.6483 13.8337 14.4067 13.6436 14.9186 13.4837C14.9186 13.1217 14.9518 12.747 14.8988 12.3881C14.8383 11.978 14.6653 10.9866 14.3013 9.89734C13.7953 8.38315 13.0024 6.91885 11.8592 6.2346C10.6082 5.48583 8.74497 5.19288 7.05983 5.11979C6.30079 5.08686 5.61628 5.09971 5.10064 5.12306ZM17.1186 15.0611C17.5947 15.0971 18.2197 15.1241 18.9217 15.1042C20.5281 15.0586 22.4009 14.7704 23.8406 13.9086C25.1484 13.1258 25.9458 11.5306 26.4035 9.91465C26.5978 9.22824 26.7182 8.58287 26.7919 8.07439C26.4334 8.0517 26.0028 8.03417 25.5287 8.03417C24.1553 8.03417 22.5232 8.18231 21.2187 8.70286C19.9818 9.1964 18.9292 10.2184 18.1557 11.2004C17.7773 11.6809 17.4842 12.1282 17.2867 12.4537C17.2188 12.5655 17.1627 12.6623 17.1186 12.7403V15.0611ZM10.4719 20.7334C10.4543 21.3501 10.4551 22.1803 10.5254 23.0564C10.5967 23.9454 10.7366 24.8419 10.981 25.5978C11.1726 26.1902 11.4035 26.6188 11.651 26.8999H20.3863C20.6338 26.6188 20.8647 26.1902 21.0562 25.5978C21.3007 24.8419 21.4405 23.9454 21.5118 23.0564C21.5821 22.1803 21.5829 21.3501 21.5653 20.7334H10.4719Z" fill="#0698D6"/>
    </symbol>
    <symbol id="rocket-icon" viewBox="0 0 48 48">
        <path fill-rule="evenodd" clip-rule="evenodd" d="M11.8413 30.6944C10.4751 30.6522 9.14143 31.1157 8.09596 31.9961C7.16748 32.776 6.46168 33.8741 5.92186 34.9793C5.37477 36.0993 4.95435 37.3184 4.63737 38.4266C4.3192 39.5389 4.09757 40.5668 3.95541 41.3155C3.87853 41.7203 3.80823 42.1266 3.75001 42.5346C3.69386 42.9413 3.82319 43.3621 4.11544 43.6543C4.40187 43.9408 4.80544 44.0773 5.20694 44.0236C6.60256 43.8354 7.99086 43.5192 9.34322 43.1324C10.4514 42.8154 11.6705 42.395 12.7905 41.8479C13.8951 41.3084 14.9926 40.6031 15.7724 39.6753C17.5603 37.5585 17.5737 34.2732 15.5162 32.2418C14.5377 31.2918 13.2025 30.7365 11.8413 30.6944ZM6.64596 41.1238C7.22947 40.9998 7.91168 40.8376 8.62819 40.6327C9.649 40.3407 10.7123 39.9694 11.6494 39.5117C12.4264 39.1322 13.2211 38.6681 13.7854 37.9985C14.7609 36.8444 14.7108 35.1089 13.6973 34.0997C13.1726 33.6026 12.4835 33.3156 11.7609 33.2932C11.0346 33.2707 10.3255 33.5173 9.76986 33.9856C9.10061 34.5485 8.637 35.3446 8.25806 36.1204C7.80035 37.0575 7.42911 38.1208 7.13711 39.1416C6.93216 39.8581 6.77001 40.5403 6.64596 41.1238Z" fill="#E40646"/>
        <path fill-rule="evenodd" clip-rule="evenodd" d="M17.1629 25.5223L22.2475 30.6069V39.812C22.2475 40.1974 22.4185 40.563 22.7144 40.81C23.0102 41.057 23.4005 41.16 23.7797 41.0911C24.9346 40.8793 26.0773 40.5448 27.1794 40.145C29.1318 39.4368 31.2339 38.415 32.424 36.6357C33.1148 35.5995 33.4152 34.3583 33.5247 33.1806C33.6352 31.9918 33.5598 30.7701 33.4209 29.6928C33.2658 28.4892 33.0263 27.4245 32.844 26.7134C42.8041 19.6192 44.3347 10.1527 44.3347 4.73511C44.3347 4.02029 43.7575 3.43957 43.0427 3.43514C38.539 3.4072 34.1029 4.53198 30.1566 6.70247C26.5255 8.69959 23.42 11.521 21.0866 14.9336C20.3754 14.7503 19.2978 14.5062 18.077 14.3489C16.9996 14.21 15.778 14.1346 14.5891 14.2451C13.3794 14.3576 12.1534 14.6649 11.1324 15.3469C9.34265 16.5442 8.25334 18.8575 7.62477 20.5904C7.29472 21.5003 7.05995 22.343 6.90761 22.9572C6.82477 23.2912 6.74828 23.6268 6.68336 23.9648C6.61171 24.3485 6.70827 24.7541 6.9598 25.0554C7.20679 25.3513 7.57234 25.5223 7.95775 25.5223H17.1629ZM19.225 23.9075L23.8654 28.5478C26.2202 27.5983 28.4853 26.4383 30.6328 25.0816C39.5036 19.1266 41.441 11.2232 41.7013 6.06378C33.9948 6.44556 26.794 10.6698 22.701 17.2142C21.363 19.3533 20.1808 21.5702 19.225 23.9075ZM24.8475 38.1637C25.2819 38.0416 25.7768 37.888 26.2928 37.7008C27.9842 37.0873 29.5678 36.2283 30.2612 35.1928C30.6224 34.6506 30.848 33.8849 30.9358 32.94C31.0832 31.3546 30.8586 29.736 30.5214 28.1868C28.6978 29.2416 26.8018 30.1667 24.8475 30.9552V38.1637ZM16.8189 22.9223C17.6176 20.9691 18.5552 19.076 19.6242 17.2574C18.0623 16.9145 16.429 16.6853 14.8298 16.834C13.8849 16.9218 13.1192 17.1474 12.577 17.5086C11.5415 18.202 10.6825 19.7856 10.0689 21.477C9.88178 21.993 9.72823 22.4879 9.60605 22.9223H16.8189Z" fill="#E40646"/>
    </symbol>
    <symbol id="ruble-icon" viewBox="0 0 48 48">
        <path fill-rule="evenodd" clip-rule="evenodd" d="M19.5078 12.9354C18.79 12.9354 18.2081 13.5173 18.2081 14.2351V22.3763H16.6279C15.9101 22.3763 15.3282 22.9582 15.3282 23.676C15.3282 24.3938 15.9101 24.9757 16.6279 24.9757H18.2081V28.5129H16.6279C15.9101 28.5129 15.3282 29.0948 15.3282 29.8126C15.3282 30.5304 15.9101 31.1123 16.6279 31.1123H18.2081V35.0051C18.2081 35.7229 18.79 36.3047 19.5078 36.3047C20.2256 36.3047 20.8075 35.7229 20.8075 35.0051V31.1123H26.2275C26.9453 31.1123 27.5272 30.5304 27.5272 29.8126C27.5272 29.0948 26.9453 28.5129 26.2275 28.5129H20.8075V24.9757H28.1474C31.4955 24.9757 34.2469 22.3007 34.2469 18.9556C34.2469 15.6104 31.4955 12.9354 28.1474 12.9354H19.5078ZM20.8075 22.3763V15.5348H28.1474C30.1009 15.5348 31.6475 17.0867 31.6475 18.9556C31.6475 20.8244 30.1009 22.3763 28.1474 22.3763H20.8075Z" fill="#5B57A2"/>
        <path fill-rule="evenodd" clip-rule="evenodd" d="M24 1.70032C11.6842 1.70032 1.70032 11.6842 1.70032 24C1.70032 36.3158 11.6842 46.2997 24 46.2997C36.3158 46.2997 46.2997 36.3158 46.2997 24C46.2997 11.6842 36.3158 1.70032 24 1.70032ZM4.29971 24C4.29971 13.1198 13.1198 4.29971 24 4.29971C34.8802 4.29971 43.7003 13.1198 43.7003 24C43.7003 34.8802 34.8802 43.7003 24 43.7003C13.1198 43.7003 4.29971 34.8802 4.29971 24Z" fill="#5B57A2"/>
    </symbol>
    <symbol id="search-icon" viewBox="0 0 20 20">
        <path fill-rule="evenodd" clip-rule="evenodd" d="M19 18.0607L13.9703 13.0043C16.468 9.99056 16.1564 5.5459 13.2624 2.91024C10.3685 0.274591 5.91416 0.378558 3.14636 3.14636C0.378558 5.91416 0.274591 10.3685 2.91024 13.2624C5.5459 16.1564 9.99056 16.468 13.0043 13.9703L18.0607 19L19 18.0607ZM2.34526 8.34096C2.34526 5.02963 5.02963 2.34526 8.34097 2.34526C11.6523 2.34526 14.3367 5.02963 14.3367 8.34096C14.3367 11.6523 11.6523 14.3367 8.34097 14.3367C5.02963 14.3367 2.34526 11.6523 2.34526 8.34096Z" fill="#8C8C8C"/>
    </symbol>
    <symbol id="shopping-bag-icon" viewBox="0 0 48 48">
        <path fill-rule="evenodd" clip-rule="evenodd" d="M14.5482 13.0613V17.8666C14.5482 18.5845 15.1302 19.1666 15.8482 19.1666C16.5662 19.1666 17.1482 18.5845 17.1482 17.8666V13.0524L30.8528 13.0524V17.8666C30.8528 18.5845 31.4348 19.1666 32.1528 19.1666C32.8708 19.1666 33.4528 18.5845 33.4528 17.8666V13.0613C34.0453 13.0701 34.5476 13.0876 34.9892 13.1222C35.8526 13.1899 36.3805 13.3175 36.8018 13.5175C37.6647 13.9271 38.3863 14.5842 38.8747 15.4052C39.1131 15.8059 39.2894 16.3196 39.4374 17.1729C39.5881 18.042 39.6936 19.1571 39.8423 20.7433L41.0652 33.787C41.2411 35.6637 41.3644 36.9903 41.3738 38.0287C41.383 39.0533 41.2769 39.6689 41.0712 40.1478C40.6456 41.1385 39.8996 41.9576 38.953 42.4739C38.4954 42.7234 37.8924 42.8865 36.8714 42.9729C35.8367 43.0605 34.5043 43.0616 32.6194 43.0616H15.3816C13.4967 43.0616 12.1643 43.0605 11.1296 42.9729C10.1086 42.8865 9.50555 42.7234 9.048 42.4739C8.10136 41.9576 7.35545 41.1385 6.92979 40.1478C6.72405 39.6689 6.61798 39.0533 6.62724 38.0287C6.63663 36.9903 6.75991 35.6637 6.93585 33.787L8.15869 20.7433C8.3074 19.1571 8.41287 18.042 8.56359 17.1729C8.71156 16.3196 8.88792 15.8059 9.12631 15.4052C9.61471 14.5842 10.3363 13.9271 11.1992 13.5175C11.6205 13.3175 12.1484 13.1899 13.0118 13.1222C13.4534 13.0876 13.9557 13.0701 14.5482 13.0613ZM33.3652 10.4598C34.0495 10.4687 34.6546 10.488 35.1924 10.5302C36.2129 10.6102 37.0935 10.7779 37.9167 11.1687C39.2457 11.7995 40.357 12.8115 41.1092 14.0758C41.5751 14.859 41.8243 15.7201 41.9992 16.7287C42.1693 17.71 42.2834 18.9267 42.426 20.4474L43.6593 33.6033C43.8285 35.4076 43.9632 36.8438 43.9737 38.0052C43.9844 39.193 43.8697 40.2207 43.4601 41.1742C42.8045 42.6999 41.6558 43.9614 40.1979 44.7565C39.2868 45.2533 38.2743 45.4634 37.0907 45.5636C35.9334 45.6616 34.491 45.6616 32.6789 45.6616H15.3221C13.51 45.6616 12.0676 45.6616 10.9103 45.5636C9.72666 45.4634 8.71416 45.2533 7.80313 44.7565C6.34525 43.9614 5.19649 42.6999 4.54095 41.1742C4.13131 40.2207 4.01661 39.193 4.02735 38.0052C4.03785 36.8438 4.1725 35.4077 4.34165 33.6035L5.57505 20.4473C5.7176 18.9266 5.83165 17.7099 6.00183 16.7287C6.17673 15.7201 6.42592 14.859 6.89183 14.0758C7.644 12.8115 8.75528 11.7995 10.0843 11.1687C10.9075 10.7779 11.7881 10.6102 12.8086 10.5302C13.3464 10.488 13.9515 10.4687 14.6358 10.4598C15.266 5.85097 19.2186 2.30005 24.0005 2.30005C28.7824 2.30005 32.735 5.85097 33.3652 10.4598ZM30.7297 10.4524C30.1223 7.28959 27.3404 4.90005 24.0005 4.90005C20.6606 4.90005 17.8787 7.28959 17.2714 10.4524L30.7297 10.4524Z" fill="#0698D6"/>
    </symbol>
    <symbol id="shopping-basket-icon" viewBox="0 0 32 32">
        <path d="M17.0998 17.3333C17.0998 16.7258 16.6073 16.2333 15.9998 16.2333C15.3923 16.2333 14.8998 16.7258 14.8998 17.3333V21.7778C14.8998 22.3853 15.3923 22.8778 15.9998 22.8778C16.6073 22.8778 17.0998 22.3853 17.0998 21.7778V17.3333Z" fill="#E40646"/>
        <path d="M23.0122 16.254C23.6083 16.3712 23.9964 16.9495 23.8792 17.5456L23.005 21.99C22.8877 22.5861 22.3094 22.9743 21.7133 22.8571C21.1173 22.7398 20.7291 22.1615 20.8463 21.5654L21.7205 17.121C21.8378 16.5249 22.4161 16.1367 23.0122 16.254Z" fill="#E40646"/>
        <path d="M10.279 17.121C10.1618 16.5249 9.5835 16.1367 8.98741 16.254C8.39132 16.3712 8.00313 16.9495 8.12037 17.5456L8.99453 21.99C9.11177 22.5861 9.69004 22.9743 10.2861 22.8571C10.8822 22.7398 11.2704 22.1616 11.1532 21.5655L10.279 17.121Z" fill="#E40646"/>
        <path fill-rule="evenodd" clip-rule="evenodd" d="M13.9377 4.63081C14.2861 4.13311 14.165 3.44723 13.6673 3.09884C13.1696 2.75046 12.4838 2.87149 12.1354 3.36919L7.27865 10.3074H6.50046C3.81767 10.3074 1.78991 12.7371 2.26982 15.3766L4.06914 25.2729C4.44089 27.3175 6.22166 28.8037 8.29979 28.8037H23.6992C25.7774 28.8037 27.5581 27.3175 27.9299 25.2729L29.7292 15.3766C30.2091 12.7371 28.1814 10.3074 25.4986 10.3074H24.721L19.8643 3.36919C19.5159 2.87149 18.83 2.75046 18.3323 3.09884C17.8346 3.44723 17.7136 4.13311 18.0619 4.63081L22.0355 10.3074H9.96409L13.9377 4.63081ZM6.50046 12.5074C5.19026 12.5074 4.19996 13.694 4.43433 14.983L6.23366 24.8793C6.41521 25.8779 7.28489 26.6037 8.29979 26.6037H23.6992C24.7141 26.6037 25.5838 25.8779 25.7654 24.8793L27.5647 14.983C27.7991 13.694 26.8088 12.5074 25.4986 12.5074H6.50046Z" fill="#E40646"/>
    </symbol>
    <symbol id="shirt-icon" viewBox="0 0 32 32">
        <path fill-rule="evenodd" clip-rule="evenodd" d="M12.9933 3.21606C13.964 3.59802 15.0129 3.81781 16.0568 3.81781C17.2069 3.81781 18.6095 3.61329 19.6873 3.21195C19.9035 3.1478 20.1342 3.15164 20.3481 3.22295L24.3481 4.55629C24.5101 4.61029 24.6573 4.70127 24.7781 4.82202L30.1114 10.1554C30.5137 10.5576 30.5428 11.2003 30.1786 11.6374L26.8453 15.6374C26.5783 15.9577 26.16 16.0936 25.7669 16.0083V28.2665C25.7669 28.874 25.2744 29.3665 24.6669 29.3665H7.33357C6.72605 29.3665 6.23357 28.874 6.23357 28.2665V16.0083C5.84044 16.0936 5.42213 15.9577 5.15519 15.6374L1.82186 11.6374C1.45764 11.2003 1.48679 10.5576 1.88908 10.1554L7.22242 4.82202C7.3546 4.68983 7.51829 4.59352 7.69804 4.54216L12.3647 3.20883C12.5705 3.15004 12.789 3.15257 12.9933 3.21606ZM13.7007 7.34566C14.1728 8.1549 14.8699 8.79992 16.0006 8.79992C17.1312 8.79992 17.8284 8.1549 18.3004 7.34566C18.6042 6.82487 18.7995 6.25621 18.925 5.66907C18.8653 5.68095 18.8043 5.6935 18.7422 5.70691C17.936 5.88097 16.9665 6.0644 16.0568 6.03503C15.2945 6.01043 14.2649 5.81847 13.5938 5.65613C13.3864 5.60598 13.1958 5.55637 13.0299 5.51149C13.1878 6.14872 13.3666 6.77289 13.7007 7.34566ZM6.29848 13.5625L6.94919 13.2332C7.25552 13.08 7.69271 13.1863 7.98405 13.3665C8.27539 13.5467 8.44661 13.9802 8.44661 14.323V27.1784H23.5494V14.3214C23.5494 13.9787 23.6939 13.5702 23.9853 13.39C24.2766 13.2098 24.7608 13.0956 25.0672 13.2489L25.7179 13.5625L27.8425 10.9832L23.4051 6.54581L21.0958 5.79488C21.1287 6.14046 20.996 6.52016 20.8963 6.84636C20.765 7.27603 20.5473 7.8601 20.2007 8.45417C19.5061 9.64493 18.2032 10.9999 16.0006 10.9999C13.7979 10.9999 12.495 9.64493 11.8004 8.45417C11.279 7.56027 11.052 6.70859 10.9628 6.31447C10.9324 6.17975 10.901 6.04237 10.9004 5.90364L8.57812 6.58191L4.1582 10.9989L6.29848 13.5625Z" fill="#5B57A2"/>
    </symbol>
</svg>